# xmcd
#
# Track frame offsets: 
#        150
#        28740
#        52562
#        77288
#        101963
#        118266
#        149212
#        165222
#        186983
#        209205
#        226539
#        237754
#        264072
#        281379
#        304338
#
# Disc length: 4686 seconds
#
# Revision: 0
# Processed by: cddbd v1.5.2PL0 Copyright (c) Steve Scherf et al.
# Submitted via: ExactAudioCopy v0.95b1
#
DISCID=c7124c0f
DTITLE=Various Artist - Blues Collection Vol.30 
DYEAR=2004
DGENRE=Blues
TTITLE0=Paul Camilleri -When The Night Come
TTITLE1=Boogie Stuff -Missing You
TTITLE2=J.T. Lauritsen -Holey In My Heart
TTITLE3=Barry Levenson  -Inhumanity Blues
TTITLE4=Wild «T» and The Spirit- Hard To Believe
TTITLE5=Collard Greens and Grevy - St. James Infirmary
TTITLE6=Wayne Baker Brooks -Root Of My Soul
TTITLE7=Johnny Dyer- Everybody Talking
TTITLE8=Kelley Hunt  -That's What Makes You Strong
TTITLE9=Shawn Pittman -Something To Remember You By
TTITLE10=Big Joe Duskin- C.C. Rider
TTITLE11=Tommy Castro -No One Left To Lie To
TTITLE12=The Case- Lonesome Guitar
TTITLE13=Frank Robinson and Guitar Curtis- Going To Navasota
TTITLE14=Jimmy D.Lane -Bleeding Heart
EXTD=
EXTT0=
EXTT1=
EXTT2=
EXTT3=
EXTT4=
EXTT5=
EXTT6=
EXTT7=
EXTT8=
EXTT9=
EXTT10=
EXTT11=
EXTT12=
EXTT13=
EXTT14=
PLAYORDER=
